<?xml version="1.0" encoding="UTF-8"?>
<svg width="64px" height="64px" viewBox="0 0 64 64" version="1.1" xmlns="http://www.w3.org/2000/svg" xmlns:xlink="http://www.w3.org/1999/xlink">
    <title>favicon copy 2-svg</title>
    <defs>
        <linearGradient x1="0%" y1="0%" x2="100%" y2="100%" id="linearGradient-1">
            <stop stop-color="#F44243" offset="0%"></stop>
            <stop stop-color="#B21819" offset="100%"></stop>
        </linearGradient>
    </defs>
    <g id="favicon-copy-2" stroke="none" stroke-width="1" fill="none" fill-rule="evenodd">
        <path d="M32,0 C49.673112,-3.24649801e-15 64,14.326888 64,32 C64,49.673112 49.673112,64 32,64 C14.326888,64 2.164332e-15,49.673112 0,32 C-2.164332e-15,14.326888 14.326888,3.24649801e-15 32,0 Z M23.484375,15.5703125 L18.7734375,15.5703125 L18.7734375,50 L23.484375,50 L23.484375,33.8984375 L41.390625,33.8984375 L41.390625,50 L46.1015625,50 L46.1015625,15.5703125 L41.390625,15.5703125 L41.390625,29.796875 L23.484375,29.796875 L23.484375,15.5703125 Z" id="Combined-Shape" fill="url(#linearGradient-1)"></path>
    </g>
</svg>